<svg version="1.1" id="Layer_1" xmlns="http://www.w3.org/2000/svg" xmlns:xlink="http://www.w3.org/1999/xlink" x="0px" y="0px"
	 width="100%" viewBox="0 0 1024 1024" enable-background="new 0 0 1024 1024" xml:space="preserve">
<path fill="#000000" opacity="1.000000" stroke="none" 
	d="
M847.595337,586.519653 
	C845.773071,587.215698 845.575439,588.496338 845.269409,589.843018 
	C842.423889,602.364624 838.369019,614.499390 833.554688,626.396362 
	C831.437622,631.627747 832.055969,632.366272 837.657532,632.729980 
	C862.035095,634.312805 886.403809,636.036377 910.787109,637.521851 
	C916.758423,637.885559 922.743347,637.833435 928.705444,638.609497 
	C933.891907,639.284546 935.420166,641.111877 935.484619,646.992432 
	C935.537781,651.846008 932.993774,653.605652 928.598206,653.344849 
	C916.157959,652.606812 903.693848,652.084351 891.296509,650.884460 
	C884.671204,650.243164 878.029114,650.192261 871.400085,649.554688 
	C857.838196,648.250183 844.180542,647.972717 830.580200,647.018616 
	C826.186951,646.710388 823.408691,647.854431 821.623657,652.161194 
	C817.401855,662.347168 811.180359,671.422668 804.834351,679.973022 
	C805.750549,682.655701 807.813354,682.763367 809.447510,683.378845 
	C839.041992,694.524780 868.657776,705.614258 898.250183,716.765808 
	C901.314209,717.920471 904.742981,718.805115 905.300354,722.945740 
	C906.221313,729.787109 900.504761,733.900085 893.573486,731.253479 
	C868.079834,721.519409 842.604797,711.736694 817.117798,701.985168 
	C811.211975,699.725525 805.245117,697.619202 799.387207,695.242981 
	C796.335815,694.005188 794.211975,694.374512 791.998474,697.054382 
	C768.258301,725.795837 739.515137,748.520020 707.127441,766.700439 
	C702.825562,769.115234 702.528503,771.430786 704.241516,775.432861 
	C714.204590,798.710083 722.632935,822.509583 728.357300,847.220886 
	C729.727173,853.134399 729.988159,859.067566 729.261475,865.036560 
	C728.598267,870.484192 725.420837,874.051819 720.379150,876.138672 
	C708.195984,881.181641 695.438843,884.355591 682.742371,887.697327 
	C656.840820,894.514709 630.437683,898.817566 603.923645,902.186035 
	C565.388733,907.081665 526.621216,908.042236 487.810150,907.355469 
	C463.356934,906.922791 439.080017,904.636780 414.796570,901.609924 
	C379.898682,897.259888 345.778076,889.795105 312.297546,879.207886 
	C304.335846,876.690247 297.292999,872.946411 296.737335,863.252686 
	C296.375824,856.946167 296.612427,850.681580 298.151184,844.426697 
	C304.211060,819.794556 312.691071,796.014465 322.990143,772.873413 
	C324.346954,769.824768 323.717346,768.509399 320.959778,767.035461 
	C288.545013,749.708984 260.640686,726.763611 236.868347,698.804504 
	C233.967453,695.392700 231.399567,695.000977 227.377975,696.386841 
	C195.894196,707.236267 164.784378,719.048828 134.108124,732.004517 
	C130.748947,733.423218 127.509529,734.195862 124.261978,731.569946 
	C121.226562,729.115540 120.217697,726.076233 120.686325,722.291931 
	C121.192261,718.206543 124.415962,717.062683 127.472855,715.768188 
	C146.333069,707.781860 165.541245,700.698120 184.838684,693.858582 
	C195.501541,690.079285 206.241501,686.517822 216.942871,682.846924 
	C222.256241,681.024292 222.613892,680.270203 219.338379,675.591003 
	C213.870544,667.779968 209.141678,659.564331 205.310364,650.850098 
	C203.813049,647.444458 201.459625,646.126587 197.844803,646.401184 
	C176.796661,648.000183 155.748489,649.603088 134.691666,651.081543 
	C122.253281,651.954895 109.796158,652.558594 97.353249,653.372009 
	C92.798866,653.669739 89.999603,652.051392 89.371162,647.253601 
	C88.710960,642.213257 90.472404,639.415283 95.519714,638.108643 
	C102.323235,636.347351 109.370148,636.430176 116.289787,635.865173 
	C130.534149,634.702271 144.847504,634.407166 159.124786,633.616394 
	C169.076813,633.065186 179.011520,632.202942 188.963257,631.645203 
	C192.908752,631.424072 193.391708,629.145691 192.486084,626.206787 
	C191.016922,621.439087 189.042679,616.824036 187.642029,612.039001 
	C185.542206,604.865479 183.536682,597.648254 181.938385,590.351685 
	C181.277466,587.334351 179.670914,586.041626 177.053024,585.554321 
	C151.450882,580.789001 125.839493,576.073364 100.235214,571.319519 
	C98.279282,570.956360 96.211220,570.717468 94.450966,569.882080 
	C90.999397,568.244019 88.914780,565.465942 89.832306,561.436768 
	C90.664635,557.781738 93.122192,555.722778 96.970688,555.674316 
	C103.329620,555.594116 109.485588,557.190186 115.682190,558.250610 
	C134.653122,561.496826 153.572525,565.043457 172.518295,568.437988 
	C175.877319,569.039856 177.713211,568.614319 177.223694,564.105896 
	C172.139725,517.284119 177.262314,471.845459 196.149887,428.329346 
	C199.865067,419.769745 203.560852,411.213898 208.230545,403.120575 
	C209.549438,400.834747 209.832214,398.584198 209.146011,395.958893 
	C203.979263,376.191254 199.650894,356.221741 196.969833,335.973907 
	C194.593033,318.023682 193.183899,299.965820 192.546265,281.834503 
	C192.077881,268.515900 191.396576,255.208466 191.724152,241.884109 
	C192.284561,219.088242 194.259628,196.430603 199.726517,174.223938 
	C202.757217,161.913040 208.202316,150.996567 219.909744,144.580322 
	C231.819061,138.053436 243.670319,139.932480 255.356293,145.409103 
	C268.151123,151.405380 278.949646,160.401901 290.124481,168.797272 
	C325.177795,195.132019 355.870758,226.137878 385.334717,258.410492 
	C388.303650,261.662445 390.591705,262.166107 394.702454,260.831940 
	C419.892029,252.656509 445.612030,246.933258 472.056213,244.506424 
	C498.134583,242.113174 524.125366,242.085373 550.243652,244.406937 
	C578.879333,246.952255 606.662598,253.105072 634.014893,261.569275 
	C637.177307,262.547882 638.706238,261.547668 640.748901,259.300293 
	C676.119385,220.384735 713.507446,183.655869 756.772339,153.387634 
	C763.198669,148.891754 769.953247,144.924805 777.493286,142.514694 
	C796.719910,136.369125 815.433777,145.507782 823.261719,164.872559 
	C827.915405,176.384933 829.330566,188.628967 831.332825,200.743271 
	C834.990967,222.875443 834.658203,245.198608 834.261658,267.487793 
	C833.481750,311.323944 828.497681,354.647247 817.108704,397.091003 
	C816.530273,399.246399 816.758423,400.795380 817.802979,402.682831 
	C832.348511,428.965485 842.501160,456.863403 847.058228,486.565277 
	C851.083008,512.797852 851.933472,539.201111 848.514709,565.622986 
	C847.919006,570.226807 849.066650,571.279968 853.799255,570.298828 
	C876.716187,565.548035 899.633301,560.798401 922.557739,556.084045 
	C924.011658,555.784973 925.525085,555.743347 927.015198,555.658875 
	C930.952942,555.435425 934.503113,555.953247 935.276794,560.777893 
	C936.056580,565.640381 933.733398,568.999207 928.520386,570.166321 
	C923.175415,571.363037 917.752380,572.205566 912.382141,573.295044 
	C890.908508,577.651672 869.442200,582.044189 847.595337,586.519653 
M704.662231,817.735596 
	C699.959534,803.857117 694.571228,790.240540 689.026245,776.682190 
	C683.592834,763.396790 683.763123,762.604675 696.387939,755.641724 
	C725.057739,739.829712 750.888916,720.376709 773.203430,696.354675 
	C774.956604,694.467346 777.157410,692.784241 777.336121,689.675964 
	C776.337463,689.187256 775.502258,688.638245 774.585144,688.351501 
	C765.861145,685.624023 757.042542,683.237854 748.087891,681.398743 
	C744.026123,680.564575 739.878967,680.130981 735.836975,679.220642 
	C731.579651,678.261719 729.200989,675.671997 729.660522,670.976624 
	C730.115540,666.327637 733.157593,665.359497 737.062927,665.566528 
	C740.047485,665.724731 743.064880,665.752014 746.001648,666.237244 
	C758.966858,668.379517 771.621521,671.856567 784.266541,675.366760 
	C786.812317,676.073425 789.331665,676.917786 791.393005,673.980896 
	C796.565125,666.612366 801.687012,659.218079 805.788635,651.186035 
	C807.984558,646.885925 807.190002,645.540527 802.218201,645.415588 
	C784.250732,644.964111 766.343933,642.981201 748.345947,643.306030 
	C746.860718,643.332886 745.341736,643.201782 743.887329,642.904785 
	C739.675293,642.044922 737.583862,639.343689 737.746643,635.082947 
	C737.914917,630.680237 740.980896,628.885437 744.752197,628.785889 
	C752.575806,628.579224 760.416382,628.664551 768.240784,628.916809 
	C782.875122,629.388489 797.504517,630.027283 812.131958,630.686035 
	C815.127136,630.820923 816.660767,629.468750 817.725403,626.812195 
	C821.194092,618.156799 824.672913,609.506348 827.287842,600.547180 
	C828.194214,597.441833 829.444641,594.325867 828.901672,591.249817 
	C827.828308,590.391724 827.021057,590.459778 826.189209,590.661072 
	C816.015564,593.122620 805.836121,595.560303 795.668213,598.045288 
	C782.270874,601.319458 768.892029,604.669983 755.484924,607.903687 
	C750.758179,609.043762 746.955872,607.409546 745.957153,603.870300 
	C744.666260,599.295715 747.064148,596.479614 750.964539,594.814514 
	C753.857605,593.579468 756.884277,592.573975 759.937683,591.811523 
	C781.695374,586.377747 803.351318,580.513794 825.429443,576.428101 
	C832.424500,575.133728 833.209351,574.007690 833.651001,566.839783 
	C833.712463,565.842285 833.701599,564.835754 833.832764,563.847778 
	C836.851135,541.104797 836.459961,518.315674 833.364746,495.685669 
	C829.364685,466.439636 820.403931,438.617035 806.031677,412.758057 
	C801.767761,405.086395 800.985901,397.718201 803.101929,389.340546 
	C807.451233,372.120453 810.893250,354.678375 813.546509,337.118683 
	C816.728027,316.062958 817.488098,294.749512 818.400513,273.534241 
	C819.674011,243.924728 818.434326,214.310745 812.519470,185.115997 
	C810.663879,175.957016 808.149109,166.969559 801.609253,159.737213 
	C798.867493,156.705139 795.726135,155.124954 791.526367,155.276535 
	C782.077087,155.617569 774.418091,160.260666 766.822937,165.129272 
	C748.231873,177.046463 731.644043,191.532166 715.234192,206.154816 
	C692.197266,226.682755 671.020020,249.109482 650.435608,272.071747 
	C645.551392,277.520233 640.530334,279.671356 633.272156,277.118042 
	C611.609680,269.497620 589.463074,263.902740 566.575378,261.150940 
	C542.638672,258.272980 518.817261,255.090042 494.564880,257.197052 
	C474.850311,258.909760 455.273956,261.283417 435.850708,265.045685 
	C420.949005,267.932129 406.550690,272.555450 392.200104,277.358948 
	C386.201843,279.366699 381.257019,278.605988 377.164948,273.214020 
	C374.257568,269.383087 370.669495,266.070404 367.402802,262.510315 
	C337.721558,230.163300 306.470703,199.509659 270.963226,173.482773 
	C261.160095,166.297089 251.359116,159.050522 239.284546,155.883057 
	C232.868393,154.199936 227.499191,155.457184 223.152573,160.700073 
	C219.105301,165.581894 217.037521,171.358414 215.382751,177.309097 
	C209.180786,199.611725 208.371826,222.589066 207.458023,245.484360 
	C206.627655,266.289001 208.592972,287.069244 209.464294,307.853333 
	C209.776901,315.310516 210.465820,322.795380 211.631500,330.165039 
	C215.000595,351.465118 218.295395,372.782593 223.785431,393.693268 
	C225.286835,399.411957 224.770340,405.162201 221.463669,410.522675 
	C218.759521,414.906433 216.395737,419.529968 214.219254,424.204651 
	C193.466049,468.777954 186.827499,515.574341 192.437195,564.249390 
	C193.514221,573.594788 193.841431,573.795105 203.056259,575.618408 
	C203.218826,575.650574 203.391403,575.633301 203.553299,575.667542 
	C227.300034,580.688538 250.792542,586.708008 274.028290,593.718506 
	C279.148682,595.263367 282.032806,599.315002 281.031830,603.148499 
	C279.930115,607.367737 276.181793,608.998230 270.517365,607.631104 
	C250.020172,602.683960 229.542618,597.654114 209.022598,592.803833 
	C205.457062,591.961060 201.879410,590.375488 197.637451,591.345642 
	C200.511383,603.464905 204.590103,614.868774 208.802246,626.227478 
	C209.624374,628.444458 211.243408,629.738525 213.766220,629.668396 
	C224.751984,629.362976 235.744766,630.097290 246.733505,629.158325 
	C258.204834,628.178040 269.720459,628.634033 281.214355,628.781982 
	C284.208923,628.820557 287.328308,629.719177 288.258453,633.270325 
	C289.129059,636.594299 288.317017,639.589844 285.582611,641.808960 
	C283.651611,643.376221 281.259613,643.358521 278.903809,643.336670 
	C261.072754,643.171143 243.308197,644.757019 225.506210,645.346680 
	C221.564636,645.477234 220.793320,646.886902 222.679169,650.273071 
	C226.489685,657.115295 230.421082,663.870850 234.662231,670.466125 
	C237.363586,674.666992 240.166382,675.369812 245.031693,674.063965 
	C259.434448,670.198425 273.714111,665.438293 288.929291,665.583923 
	C292.898743,665.621948 295.925049,666.568054 296.487305,670.999146 
	C297.068329,675.577637 294.810089,678.350769 290.454681,679.312927 
	C285.270813,680.458252 279.993347,681.194946 274.833282,682.429871 
	C266.662292,684.385254 258.382355,686.052307 250.637024,689.418274 
	C251.817062,693.148071 251.844055,693.124451 254.125351,695.732666 
	C266.473083,709.849854 280.626587,721.962524 295.553528,733.235046 
	C307.684265,742.396057 320.746613,750.061035 333.937012,757.545593 
	C340.889099,761.490356 341.898041,764.554810 339.138611,771.968811 
	C338.732208,773.060791 338.268982,774.131714 337.826019,775.209900 
	C327.770782,799.689636 318.126495,824.312073 312.090149,850.169617 
	C309.406982,861.663391 310.389069,863.350586 321.401550,866.709534 
	C376.289520,883.451050 432.571503,891.134766 489.805634,892.657898 
	C510.639343,893.212341 531.444031,892.069458 552.255920,891.534546 
	C562.383179,891.274292 572.516174,890.449402 582.598877,889.415100 
	C601.746399,887.450806 620.846313,885.139648 639.814331,881.708801 
	C663.387756,877.444885 686.682373,872.143616 709.466309,864.717468 
	C715.201843,862.848145 716.026428,860.922485 714.959290,854.988708 
	C712.714844,842.509155 708.792786,830.505737 704.662231,817.735596 
z"/>
<path fill="#000000" opacity="1.000000" stroke="none" 
	d="
M597.348755,497.445435 
	C610.533325,473.771851 630.469055,459.165375 656.179810,453.480377 
	C674.598450,449.407776 693.101135,451.090363 709.553101,461.696411 
	C727.813293,473.468231 733.435303,488.560486 728.959961,509.784241 
	C721.547180,544.939209 697.621826,564.229431 663.161438,569.391174 
	C647.471313,571.741455 632.028015,570.679504 616.937012,565.451050 
	C608.626221,562.571655 601.382812,558.030640 594.721497,552.346741 
	C587.669922,546.329834 585.559570,538.661621 586.831482,529.881104 
	C588.463562,518.614563 591.737000,507.830688 597.348755,497.445435 
M704.108521,531.628601 
	C710.053894,524.167358 713.913086,515.631653 715.223022,506.298401 
	C716.715881,495.662476 717.388733,485.117737 707.067932,477.305878 
	C696.142212,469.036285 684.100342,465.600555 670.635864,466.491455 
	C668.669678,466.621552 666.392883,466.850800 665.595398,469.039459 
	C664.878174,471.007721 666.957642,471.868469 667.981506,473.060669 
	C671.210938,476.821136 673.034668,481.242218 674.306152,485.946991 
	C677.086365,496.234467 676.780579,506.772522 676.078125,517.194885 
	C675.520569,525.467773 673.552551,533.634399 669.308044,540.992126 
	C663.098022,551.757080 650.431580,552.123291 643.816589,541.627869 
	C642.147766,538.980103 640.781677,536.023438 639.884949,533.026672 
	C635.110229,517.070068 634.580933,501.021729 639.354919,484.928864 
	C639.955505,482.904175 641.191467,480.511749 639.142151,478.863098 
	C636.856201,477.024109 634.747742,478.949677 632.822571,480.157043 
	C617.535583,489.744446 608.178040,503.691956 603.222839,520.791809 
	C598.536072,536.965393 601.293579,542.927246 616.630249,550.220703 
	C617.681030,550.720398 618.778625,551.125000 619.865540,551.545288 
	C636.451904,557.958496 653.338684,557.815674 670.324402,553.587708 
	C683.809387,550.231201 695.286682,543.572693 704.108521,531.628601 
z"/>
<path fill="#000000" opacity="1.000000" stroke="none" 
	d="
M299.360107,517.351868 
	C297.010284,508.275696 295.292389,499.608124 296.355316,490.466858 
	C297.695801,478.938385 304.094635,470.969879 312.931549,464.354645 
	C327.770081,453.246582 344.494843,450.168091 362.529083,452.599396 
	C384.627441,455.578552 403.873169,464.513611 418.099823,481.883087 
	C431.200500,497.877869 439.838409,516.011108 439.452911,537.483582 
	C439.347626,543.348145 436.994568,547.931885 432.825104,551.412537 
	C416.262421,565.238953 396.958679,571.006714 375.512543,570.578003 
	C363.562988,570.339233 352.043823,568.194031 341.009583,563.799622 
	C319.658752,555.296326 305.836884,539.848206 299.360107,517.351868 
M409.579346,550.122437 
	C414.261993,547.851013 418.431702,544.856567 422.276855,541.353577 
	C425.132416,538.752014 426.112183,535.612183 425.518646,531.889038 
	C423.744904,520.762390 420.319611,510.244324 414.103943,500.739563 
	C408.262665,491.807281 400.966370,484.411041 391.517517,479.299255 
	C390.067566,478.514862 388.429016,477.742676 386.801270,478.858490 
	C385.388947,479.826691 385.957092,481.255981 386.308594,482.512726 
	C389.562042,494.144440 390.898407,505.930939 389.353363,517.977234 
	C388.291565,526.255920 386.917419,534.491394 382.342712,541.658569 
	C375.834320,551.855286 363.979340,551.787476 357.466858,541.718933 
	C352.722168,534.383484 350.709381,526.073303 350.160248,517.618713 
	C349.068817,500.814880 347.892303,483.782898 361.152893,470.207367 
	C361.425690,469.928131 361.323669,469.282776 361.392853,468.832031 
	C359.900696,466.785339 357.769135,466.559326 355.581085,466.403076 
	C343.536041,465.542816 332.404968,468.359924 322.445312,475.149414 
	C316.626190,479.116302 310.899139,483.568481 310.416199,491.415039 
	C309.039337,513.784180 317.028473,532.306458 335.804413,544.577332 
	C358.758759,559.579041 383.612061,559.972717 409.579346,550.122437 
z"/>
<path fill="#000000" opacity="1.000000" stroke="none" 
	d="
M549.289124,630.266602 
	C544.458069,634.638672 539.888123,638.770142 535.268921,642.845947 
	C520.944336,655.485229 520.240417,668.951172 533.192810,683.085693 
	C550.908386,702.418091 577.605530,701.195496 593.545044,680.325745 
	C594.151550,679.531677 594.750549,678.721619 595.440979,678.003662 
	C598.061401,675.278625 601.024475,673.559082 604.722046,675.870056 
	C608.595886,678.291199 609.176086,681.965881 607.667542,685.925232 
	C606.352234,689.377380 604.006226,692.251099 601.503662,694.958618 
	C580.530518,717.649109 544.239441,717.198975 522.329407,694.044312 
	C518.907593,690.428040 516.296509,686.199829 513.011963,681.843994 
	C508.146820,689.398682 503.103882,696.093567 496.112061,701.207397 
	C473.970825,717.401550 439.991547,716.827759 420.938293,691.089111 
	C419.548065,689.211060 418.137604,687.279053 417.783356,684.920532 
	C417.240417,681.305359 417.308014,677.618530 421.307281,675.966064 
	C425.077698,674.408264 428.539825,675.324768 430.972534,678.825439 
	C434.934998,684.527283 439.841797,689.136169 445.943207,692.527893 
	C466.682251,704.056458 495.664795,691.096069 502.233551,667.222046 
	C504.232910,659.955505 501.037170,653.665955 496.268585,648.504150 
	C491.765533,643.629761 486.469269,639.498047 481.683136,634.872803 
	C475.411743,628.812195 469.871979,622.274048 467.505463,613.521912 
	C464.150513,601.114075 469.570648,590.346436 481.610229,586.020874 
	C486.348267,584.318604 491.285614,583.507141 496.249756,583.171570 
	C511.547699,582.137451 526.920044,581.667358 541.956787,585.084900 
	C557.177856,588.544312 563.832336,602.098145 558.189087,616.692505 
	C556.243164,621.724976 553.358948,626.179016 549.289124,630.266602 
M543.951599,612.389282 
	C546.891541,604.747925 543.738708,599.936829 534.650574,598.462341 
	C522.087097,596.423950 509.423828,597.422302 496.805054,597.577454 
	C493.571198,597.617249 490.226929,598.662170 487.156799,599.831726 
	C481.685089,601.916077 480.028046,606.774536 482.614807,612.018250 
	C484.708435,616.262329 487.780121,619.745300 491.199066,622.952515 
	C497.619720,628.975586 504.809784,634.182495 510.268951,641.230469 
	C512.105225,643.601196 514.329102,643.347900 516.105225,641.019592 
	C520.496399,635.263367 526.053040,630.737244 531.668945,626.310608 
	C536.438171,622.551392 540.539734,618.282288 543.951599,612.389282 
z"/>
</svg>